<?xml version="1.0" standalone="no"?>
<!DOCTYPE svg PUBLIC "-//W3C//DTD SVG 20010904//EN"
 "http://www.w3.org/TR/2001/REC-SVG-20010904/DTD/svg10.dtd">
<svg version="1.0" xmlns="http://www.w3.org/2000/svg"
 width="700.000000pt" height="700.000000pt" viewBox="0 0 700.000000 700.000000"
 preserveAspectRatio="xMidYMid meet">
<metadata>
Created by potrace 1.14, written by Peter Selinger 2001-2017
</metadata>
<g transform="translate(0.000000,700.000000) scale(0.100000,-0.100000)"
fill="#000000" stroke="none">
<path d="M3460 6349 c-62 -26 -1633 -648 -2000 -792 -8 -3 -91 -37 -185 -74
l-170 -69 2 -134 c2 -141 11 -360 18 -420 2 -19 6 -75 10 -125 3 -49 8 -103
10 -120 2 -16 7 -55 10 -85 3 -30 10 -84 15 -120 5 -36 10 -69 10 -75 0 -6
-98 -10 -275 -10 -249 -1 -276 1 -280 16 -15 46 -137 130 -213 146 -54 12
-138 5 -193 -16 -166 -63 -253 -242 -202 -415 75 -254 402 -324 578 -123 l45
52 715 0 714 0 10 -25 c5 -14 19 -56 32 -95 12 -38 46 -130 75 -204 30 -73 54
-134 54 -135 0 0 -251 -1 -558 -1 l-557 1 -65 64 c-46 46 -80 70 -116 83 -174
61 -351 -8 -429 -168 -28 -58 -37 -95 -36 -150 3 -127 65 -232 175 -294 47
-27 70 -34 156 -45 40 -5 142 23 185 50 38 25 115 101 115 114 0 3 94 6 209 6
l210 -1 89 -175 c190 -375 358 -608 637 -885 118 -118 243 -223 390 -329 66
-47 125 -91 132 -96 7 -6 14 -10 16 -10 2 0 44 -24 93 -54 84 -50 136 -78 474
-254 l135 -70 150 72 c83 40 195 94 250 121 410 201 719 429 1000 737 94 103
111 123 197 238 137 184 236 348 354 591 l57 116 197 -1 197 -1 46 -50 c132
-147 342 -157 488 -24 142 130 137 373 -10 500 -68 59 -129 81 -226 82 -67 1
-89 -4 -135 -26 -55 -26 -112 -73 -143 -117 l-17 -24 -546 -1 c-300 0 -550 2
-555 5 -5 3 5 39 22 80 17 41 53 140 79 218 27 79 51 147 55 150 4 4 324 7
711 7 l705 1 67 -66 c49 -47 83 -70 121 -84 164 -58 343 12 420 162 18 35 21
59 21 154 0 127 -13 167 -71 229 -144 154 -367 150 -510 -9 l-44 -48 -265 1
-265 0 0 30 c1 29 11 132 19 198 7 53 25 241 31 332 2 33 7 166 11 295 l7 235
-349 138 c-192 76 -455 180 -584 232 -129 51 -356 141 -505 200 -148 59 -423
168 -610 242 -187 74 -344 136 -350 138 -5 2 -30 -5 -55 -16z m665 -1445 c330
-130 603 -242 607 -248 4 -5 5 -13 3 -16 -1 -3 -6 -36 -10 -74 -3 -38 -8 -72
-9 -75 -2 -3 -7 -26 -10 -51 -9 -67 -15 -96 -36 -187 -11 -46 -21 -93 -24
-105 -2 -13 -12 -48 -21 -78 -9 -30 -26 -84 -37 -120 -11 -36 -41 -116 -66
-179 -198 -500 -505 -881 -912 -1129 -46 -29 -90 -52 -97 -52 -24 0 -203 118
-308 203 -75 61 -268 253 -316 316 -24 31 -47 61 -52 66 -23 28 -98 138 -137
200 -45 72 -190 356 -190 372 0 5 -9 27 -19 49 -36 75 -126 366 -145 467 -2
15 -7 35 -10 45 -20 66 -59 343 -49 352 4 4 163 69 353 144 190 75 354 141
365 146 89 40 502 198 510 195 6 -2 280 -110 610 -241z m-3719 -624 c103 -50
103 -196 0 -250 -140 -75 -276 103 -169 222 22 25 69 47 102 48 14 0 44 -9 67
-20z m6349 -4 c112 -73 71 -245 -63 -263 -110 -15 -194 110 -140 208 39 71
138 98 203 55z m-5837 -819 c30 -30 36 -44 40 -89 3 -44 0 -59 -20 -88 -61
-90 -173 -89 -242 3 -27 36 -26 104 3 150 29 47 74 69 134 64 40 -4 56 -11 85
-40z m5334 34 c57 -22 88 -69 88 -133 0 -129 -160 -192 -247 -97 -25 28 -43
89 -36 121 19 90 111 141 195 109z"/>
<path d="M3445 4571 c-80 -22 -151 -75 -182 -135 -73 -140 -23 -314 108 -382
20 -10 28 -20 25 -32 -3 -9 -10 -44 -16 -77 -15 -85 -18 -101 -35 -180 -41
-181 -62 -294 -57 -299 3 -3 103 -6 224 -6 l218 1 0 22 c0 12 -7 50 -15 84 -8
34 -17 77 -20 95 -3 18 -19 98 -36 178 -16 80 -32 157 -35 172 -4 22 0 29 23
42 40 20 91 73 116 121 26 51 32 157 11 219 -26 75 -113 158 -184 173 -41 9
-118 11 -145 4z"/>
</g>
</svg>
