<svg width="144" height="144" viewBox="0 0 144 144" fill="none" xmlns="http://www.w3.org/2000/svg">
<path d="M67.4434 63.8622C67.4434 65.9626 68.7298 67.7479 70.5414 68.483L68.4148 78.7485H76.5274L74.4008 68.483C76.2123 67.7216 77.4988 65.9363 77.4988 63.8622C77.4988 61.0793 75.2409 58.8477 72.4842 58.8477C69.7012 58.8477 67.4434 61.0793 67.4434 63.8622Z" fill="#01BBF0"/>
<path d="M128.88 60.3431C126.622 60.3431 124.679 61.577 123.629 63.3886H113.889C115.228 54.3833 115.228 46.3495 115.228 45.9819V43.9603L72.4591 27L29.6908 43.9603V45.9819C29.6908 46.3757 29.717 54.5408 31.0297 63.3886H21.3156C20.2655 61.5507 18.2964 60.3431 16.0648 60.3431C12.7304 60.3431 10 63.0472 10 66.4078C10 69.7421 12.7042 72.4726 16.0648 72.4726C18.3226 72.4726 20.2655 71.2386 21.3156 69.4008H46.8874C47.1762 70.4247 47.5175 71.4487 47.8851 72.4988C48.4889 74.2579 49.1715 75.9381 49.9329 77.5922H29.822C28.7719 75.7544 26.8028 74.5467 24.5712 74.5467C21.2369 74.5467 18.5064 77.2509 18.5064 80.6114C18.5064 83.972 21.2106 86.6762 24.5712 86.6762C26.8291 86.6762 28.7719 85.4422 29.822 83.6307H37.252C39.7725 89.0653 42.1353 93.1085 44.8395 96.6003C50.1954 103.505 56.8378 109.045 64.6091 113.062L72.2228 117L79.9416 113.272C87.818 109.465 94.5916 104.03 100.026 97.0729C102.94 93.3448 105.54 88.934 107.929 83.6307H115.07C116.12 85.4685 118.089 86.6762 120.321 86.6762C123.655 86.6762 126.386 83.972 126.386 80.6114C126.386 77.2509 123.681 74.5467 120.321 74.5467C118.063 74.5467 116.12 75.7806 115.07 77.5922H95.1954C95.878 76.0694 96.4819 74.4941 97.0595 72.8664C97.4533 71.6849 97.8209 70.5297 98.1359 69.4008H123.629C124.679 71.2386 126.648 72.4726 128.88 72.4726C132.214 72.4726 134.945 69.7684 134.945 66.4078C134.918 63.0735 132.214 60.3431 128.88 60.3431ZM16.0648 68.9807C14.647 68.9807 13.4918 67.8255 13.4918 66.4078C13.4918 64.9901 14.647 63.8349 16.0648 63.8349C17.4825 63.8349 18.6377 64.9901 18.6377 66.4078C18.6377 67.8255 17.4825 68.9807 16.0648 68.9807ZM24.5712 83.1844C23.1534 83.1844 21.9982 82.0291 21.9982 80.6114C21.9982 79.1937 23.1534 78.0385 24.5712 78.0385C25.9889 78.0385 27.1441 79.1937 27.1441 80.6114C27.1441 82.0291 26.0152 83.1844 24.5712 83.1844ZM120.347 78.0123C121.765 78.0123 122.92 79.1674 122.92 80.5852C122.92 82.0029 121.765 83.1581 120.347 83.1581C118.929 83.1581 117.774 82.0029 117.774 80.5852C117.774 79.1674 118.929 78.0123 120.347 78.0123ZM91.3885 70.9236C89.6032 76.1219 87.1616 80.7165 84.1423 84.5759C80.9393 88.6715 77.0274 91.9533 72.5117 94.3687C67.9434 91.7958 64.0052 88.3565 60.7497 84.182C57.7304 80.2701 55.2888 75.6756 53.4772 70.5298C51.6394 65.2264 50.878 60.3693 50.563 57.3763L72.4329 48.7124L94.3028 57.3763C94.0402 60.4481 93.2789 65.4627 91.3885 70.9236ZM128.88 68.9807C127.462 68.9807 126.307 67.8255 126.307 66.4078C126.307 64.9901 127.462 63.8349 128.88 63.8349C130.298 63.8349 131.453 64.9901 131.453 66.4078C131.453 67.8255 130.298 68.9807 128.88 68.9807Z" fill="#170D59"/>
</svg>
