<svg width="48" height="48" viewBox="0 0 48 48" fill="none" xmlns="http://www.w3.org/2000/svg">
<path d="M17.7067 33.5716C17.7067 33.708 17.5444 33.8172 17.3397 33.8172C17.1069 33.8377 16.9446 33.7285 16.9446 33.5716C16.9446 33.4351 17.1069 33.3259 17.3115 33.3259C17.5232 33.3054 17.7067 33.4146 17.7067 33.5716ZM15.5121 33.2645C15.4627 33.401 15.6038 33.5579 15.8155 33.5988C15.999 33.6671 16.2107 33.5988 16.253 33.4624C16.2954 33.3259 16.1613 33.169 15.9496 33.1075C15.7661 33.0598 15.5615 33.128 15.5121 33.2645ZM18.631 33.1485C18.4264 33.1962 18.2853 33.3259 18.3065 33.4828C18.3276 33.6193 18.5111 33.708 18.7228 33.6603C18.9274 33.6125 19.0685 33.4828 19.0474 33.3464C19.0262 33.2167 18.8357 33.128 18.631 33.1485ZM23.2742 7C13.4869 7 6 14.1854 6 23.6499C6 31.2174 10.9254 37.6931 17.9607 39.9722C18.8639 40.1291 19.1815 39.5901 19.1815 39.1465C19.1815 38.7235 19.1603 36.3897 19.1603 34.9568C19.1603 34.9568 14.2208 35.9803 13.1835 32.9233C13.1835 32.9233 12.379 30.9376 11.2218 30.4258C11.2218 30.4258 9.60585 29.3545 11.3347 29.375C11.3347 29.375 13.0917 29.5114 14.0585 31.1355C15.6038 33.7694 18.1935 33.012 19.2026 32.5616C19.3649 31.4698 19.8236 30.7124 20.3317 30.262C16.3871 29.839 12.4073 29.2863 12.4073 22.7218C12.4073 20.8453 12.9435 19.9036 14.0726 18.7027C13.8891 18.2591 13.2893 16.4304 14.256 14.0694C15.7308 13.6258 19.125 15.9118 19.125 15.9118C20.5363 15.5296 22.0534 15.3318 23.5565 15.3318C25.0595 15.3318 26.5766 15.5296 27.9879 15.9118C27.9879 15.9118 31.3821 13.619 32.8569 14.0694C33.8236 16.4372 33.2238 18.2591 33.0403 18.7027C34.1694 19.9105 34.8609 20.8521 34.8609 22.7218C34.8609 29.3067 30.7046 29.8322 26.7601 30.262C27.4093 30.8011 27.9597 31.8247 27.9597 33.4283C27.9597 35.7278 27.9385 38.5733 27.9385 39.1329C27.9385 39.5764 28.2631 40.1155 29.1593 39.9585C36.2157 37.6931 41 31.2174 41 23.6499C41 14.1854 33.0615 7 23.2742 7ZM12.8589 30.535C12.7671 30.6032 12.7883 30.7602 12.9083 30.8898C13.0212 30.999 13.1835 31.0468 13.2752 30.9581C13.3669 30.8898 13.3458 30.7329 13.2258 30.6032C13.1129 30.4941 12.9506 30.4463 12.8589 30.535ZM12.0968 29.9823C12.0474 30.071 12.1179 30.1802 12.2591 30.2484C12.372 30.3166 12.5131 30.2962 12.5625 30.2006C12.6119 30.1119 12.5413 30.0027 12.4002 29.9345C12.2591 29.8936 12.1462 29.914 12.0968 29.9823ZM14.3831 32.4115C14.2702 32.5002 14.3125 32.7049 14.4748 32.8346C14.6371 32.9915 14.8417 33.012 14.9335 32.9028C15.0252 32.8141 14.9829 32.6094 14.8417 32.4798C14.6865 32.3228 14.4748 32.3023 14.3831 32.4115ZM13.5786 31.4084C13.4657 31.4767 13.4657 31.6541 13.5786 31.811C13.6915 31.968 13.8821 32.0362 13.9738 31.968C14.0867 31.8793 14.0867 31.7019 13.9738 31.5449C13.875 31.388 13.6915 31.3197 13.5786 31.4084Z" fill="white"/>
</svg>
