<svg width="48" height="48" viewBox="0 0 48 48" fill="none" xmlns="http://www.w3.org/2000/svg">
<g clip-path="url(#clip0_940_17)">
<path d="M44 15.0703V34.0003C44.0001 35.5307 43.4153 37.0033 42.3654 38.1168C41.3155 39.2303 39.8798 39.9005 38.352 39.9903L38 40.0003H10C8.46958 40.0004 6.99697 39.4157 5.88348 38.3657C4.76999 37.3158 4.09978 35.8801 4.01 34.3523L4 34.0003V15.0703L22.89 27.6643L23.122 27.7963C23.3954 27.9299 23.6957 27.9993 24 27.9993C24.3043 27.9993 24.6046 27.9299 24.878 27.7963L25.11 27.6643L44 15.0703Z" fill="white"/>
<path d="M38.0006 8C40.1606 8 42.0546 9.14 43.1106 10.854L24.0006 23.594L4.89062 10.854C5.39209 10.0395 6.08105 9.3568 6.90004 8.86277C7.71903 8.36873 8.64429 8.07771 9.59862 8.014L10.0006 8H38.0006Z" fill="white"/>
</g>
<defs>
<clipPath id="clip0_940_17">
<rect width="48" height="48" fill="white"/>
</clipPath>
</defs>
</svg>
