<svg width="750" height="160" viewBox="0 0 750 160" fill="none" xmlns="http://www.w3.org/2000/svg">
<path d="M100.523 69.4608C100.523 72.2222 102.215 74.5693 104.596 75.5358L101.801 89.0318H112.466L109.67 75.5358C112.052 74.5348 113.743 72.1876 113.743 69.4608C113.743 65.8021 110.775 62.8682 107.151 62.8682C103.492 62.8682 100.523 65.8021 100.523 69.4608Z" fill="white"/>
<path d="M181.291 64.8361C178.323 64.8361 175.769 66.4584 174.388 68.8401H161.582C163.343 57.0008 163.343 46.4388 163.343 45.9555V43.2977L107.115 21L50.8875 43.2977V45.9555C50.8875 46.4733 50.922 57.2079 52.6478 68.8401H39.8767C38.496 66.4239 35.9073 64.8361 32.9733 64.8361C28.5897 64.8361 25 68.3913 25 72.8095C25 77.1931 28.5552 80.7828 32.9733 80.7828C35.9418 80.7828 38.496 79.1605 39.8767 76.7444H73.4959C73.8756 78.0905 74.3243 79.4367 74.8075 80.8174C75.6014 83.13 76.4988 85.339 77.4998 87.5136H51.0601C49.6794 85.0974 47.0907 83.5096 44.1567 83.5096C39.7731 83.5096 36.1834 87.0648 36.1834 91.483C36.1834 95.9011 39.7386 99.4563 44.1567 99.4563C47.1252 99.4563 49.6794 97.834 51.0601 95.4524H60.8283C64.1419 102.597 67.2484 107.913 70.8036 112.504C77.845 121.581 86.5777 128.865 96.7946 134.146L106.804 139.323L116.952 134.422C127.307 129.417 136.213 122.272 143.358 113.125C147.189 108.224 150.606 102.425 153.747 95.4524H163.136C164.516 97.8685 167.105 99.4563 170.039 99.4563C174.423 99.4563 178.012 95.9011 178.012 91.483C178.012 87.0648 174.457 83.5096 170.039 83.5096C167.07 83.5096 164.516 85.1319 163.136 87.5136H137.006C137.904 85.5116 138.698 83.4406 139.457 81.3006C139.975 79.7473 140.458 78.2286 140.872 76.7444H174.388C175.769 79.1605 178.357 80.7828 181.291 80.7828C185.675 80.7828 189.265 77.2276 189.265 72.8095C189.23 68.4259 185.675 64.8361 181.291 64.8361ZM32.9733 76.1921C31.1094 76.1921 29.5907 74.6734 29.5907 72.8095C29.5907 70.9456 31.1094 69.4269 32.9733 69.4269C34.8372 69.4269 36.356 70.9456 36.356 72.8095C36.356 74.6734 34.8372 76.1921 32.9733 76.1921ZM44.1567 94.8656C42.2928 94.8656 40.7741 93.3469 40.7741 91.483C40.7741 89.6191 42.2928 88.1004 44.1567 88.1004C46.0206 88.1004 47.5394 89.6191 47.5394 91.483C47.5394 93.3469 46.0552 94.8656 44.1567 94.8656ZM170.073 88.0659C171.937 88.0659 173.456 89.5846 173.456 91.4485C173.456 93.3124 171.937 94.8311 170.073 94.8311C168.21 94.8311 166.691 93.3124 166.691 91.4485C166.691 89.5846 168.21 88.0659 170.073 88.0659ZM132.002 78.7464C129.654 85.5807 126.444 91.6211 122.475 96.695C118.264 102.08 113.121 106.394 107.184 109.57C101.178 106.187 96.0007 101.665 91.7207 96.1773C87.7513 91.0343 84.5412 84.9939 82.1596 78.2286C79.7434 71.2562 78.7424 64.8706 78.3282 60.9357L107.081 49.5452L135.833 60.9357C135.488 64.9742 134.487 71.5669 132.002 78.7464ZM181.291 76.1921C179.427 76.1921 177.909 74.6734 177.909 72.8095C177.909 70.9456 179.427 69.4269 181.291 69.4269C183.155 69.4269 184.674 70.9456 184.674 72.8095C184.674 74.6734 183.155 76.1921 181.291 76.1921Z" fill="#01BBF0"/>
<path d="M234.618 90.0521V108.813H220.223V50.5801H241.491C250.469 50.5801 256.846 52.097 260.623 55.131C264.4 58.1649 266.289 63.2111 266.289 70.2696C266.289 75.0372 265.283 78.9225 263.27 81.9255C261.258 84.9285 258.209 87.111 254.122 88.4732L268.332 108.813H251.057L238.983 90.0521H234.618ZM251.707 70.2696C251.707 67.793 250.964 66.0593 249.478 65.0686C247.992 64.078 245.33 63.5826 241.491 63.5826H234.618V78.4427H241.491C245.33 78.4427 247.992 77.839 249.478 76.6316C250.964 75.4242 251.707 73.3036 251.707 70.2696ZM313.562 84.2938V50.5801H327.958V84.2938C327.958 92.7764 325.884 99.1384 321.735 103.38C317.587 107.621 311.364 109.742 303.067 109.742C294.337 109.742 287.975 107.729 283.982 103.705C279.988 99.6801 277.991 93.2098 277.991 84.2938V50.5801H292.387V84.2938C292.387 88.9995 293.114 92.1727 294.569 93.8135C296.024 95.4543 298.857 96.2747 303.067 96.2747C307.216 96.2747 310.002 95.4543 311.426 93.8135C312.85 92.1727 313.562 88.9995 313.562 84.2938ZM361.393 108.813H341.053V50.5801H361.393C367.337 50.5801 372.058 51.0754 375.556 52.0661C379.055 53.0568 381.857 54.6356 383.962 56.8027C386.067 58.9698 387.599 61.8954 388.559 65.5795C389.519 69.2635 389.999 73.9537 389.999 79.65C389.999 89.7425 387.739 97.126 383.219 101.801C378.699 106.475 371.424 108.813 361.393 108.813ZM372.817 67.2976C371.95 65.9974 370.681 65.0532 369.009 64.4649C367.337 63.8767 364.798 63.5826 361.393 63.5826H355.449V95.3459H361.393C364.737 95.3459 367.244 95.0673 368.916 94.5101C370.588 93.9528 371.888 93.055 372.817 91.8167C373.622 90.6403 374.21 89.0769 374.581 87.1265C374.953 85.1761 375.139 82.684 375.139 79.65C375.139 76.5542 374.953 74.0311 374.581 72.0807C374.21 70.1303 373.622 68.536 372.817 67.2976ZM434.021 50.5801H448.881L428.542 87.6373V108.813H414.146V87.6373L393.249 50.5801H409.688L421.39 74.9134L434.021 50.5801ZM483.524 108.813H468.385L489.932 50.5801H504.885L525.875 108.813H510.829L507.764 99.0609H486.589L483.524 108.813ZM497.084 64.8829C496.588 66.6166 496.047 68.4586 495.458 70.4089C494.87 72.3593 493.895 75.5326 492.533 79.9287L490.118 87.6373H504.142L501.728 79.9287C500.923 77.5758 500.118 75.0837 499.313 72.4522C498.508 69.8207 497.765 67.2976 497.084 64.8829ZM570.269 50.5801V63.5826H554.388V108.813H539.992V63.5826H524.11V50.5801H570.269ZM623.301 50.5801V63.5826H607.42V108.813H593.024V63.5826H577.142V50.5801H623.301ZM636.489 108.813H621.351L642.898 50.5801H657.851L678.841 108.813H663.795L660.73 99.0609H639.554L636.489 108.813ZM650.049 64.8829C649.554 66.6166 649.012 68.4586 648.424 70.4089C647.836 72.3593 646.861 75.5326 645.498 79.9287L643.084 87.6373H657.108L654.693 79.9287C653.888 77.5758 653.083 75.0837 652.278 72.4522C651.473 69.8207 650.73 67.2976 650.049 64.8829ZM725 95.3459V108.813H687.849V50.5801H702.245V95.3459H725Z" fill="white"/>
</svg>
